<svg width="547" height="514" viewBox="0 0 547 514" fill="none" xmlns="http://www.w3.org/2000/svg">
<rect width="547" height="514" fill="#FEFEFE"/>
<path d="M229.25 213.25V300.75H316.75V260.125C316.75 258.399 318.149 257 319.875 257H326.125C327.851 257 329.25 258.399 329.25 260.125V307C329.25 310.452 326.452 313.25 323 313.25H223C219.548 313.25 216.75 310.452 216.75 307V207C216.75 203.548 219.548 200.75 223 200.75H269.875C271.601 200.75 273 202.149 273 203.875V210.125C273 211.851 271.601 213.25 269.875 213.25H229.25Z" fill="#ECECEC" fill-opacity="0.95"/>
<path d="M310.5 203.875C310.5 202.149 309.101 200.75 307.375 200.75H301.125C299.399 200.75 298 202.149 298 203.875V219.5H282.375C280.649 219.5 279.25 220.899 279.25 222.625V228.875C279.25 230.601 280.649 232 282.375 232H298V247.625C298 249.351 299.399 250.75 301.125 250.75H307.375C309.101 250.75 310.5 249.351 310.5 247.625V232H326.125C327.851 232 329.25 230.601 329.25 228.875V222.625C329.25 220.899 327.851 219.5 326.125 219.5H310.5V203.875Z" fill="#ECECEC" fill-opacity="0.95"/>
<path d="M243.044 288.25H304.661C307.157 288.25 308.646 285.468 307.261 283.392L287.95 254.425C286.754 252.631 284.144 252.559 282.85 254.283L266.75 275.75L256.265 270.507C255.061 269.906 253.608 270.142 252.657 271.093L240.835 282.915C238.866 284.884 240.26 288.25 243.044 288.25Z" fill="#ECECEC" fill-opacity="0.95"/>
</svg>
